Coordinates
version=1
nRows=6
nColumns=36
inDegrees=yes

Units are S.I. units (second, meters, Newtons, ...)
If the header above contains a line with 'inDegrees', this indicates whether rotational values are in degrees (yes) or radians (no).

endheader
time	pelvis_tilt	pelvis_list	pelvis_rotation	pelvis_tx	pelvis_ty	pelvis_tz	hip_flexion_r	hip_adduction_r	hip_rotation_r	knee_angle_r	knee_angle_r_beta	ankle_angle_r	subtalar_angle_r	mtp_angle_r	hip_flexion_l	hip_adduction_l	hip_rotation_l	knee_angle_l	knee_angle_l_beta	ankle_angle_l	subtalar_angle_l	mtp_angle_l	lumbar_extension	lumbar_bending	lumbar_rotation	arm_flex_r	arm_add_r	arm_rot_r	elbow_flex_r	pro_sup_r	arm_flex_l	arm_add_l	arm_rot_l	elbow_flex_l	pro_sup_l
      1.45000000	     -5.50858383	      2.20183201	      0.18357305	     -0.10372973	      1.24465802	     -0.05224155	      1.82099557	      0.24609284	     -1.16875615	      0.09803260	      0.00171099	      8.16486396	     -5.32838571	     -7.49992858	      0.14248163	     -0.89513748	     -7.25776994	      0.18893392	      0.00329752	      4.48256696	     -1.69909288	     -7.49992858	      4.49088398	      1.93050653	      1.40706994	      3.59667709	     -7.45319819	     34.63194904	     20.11984479	     64.36529009	      5.26274228	     -7.41231521	     38.41430602	     24.18258305	     63.86625100
      1.46666670	     -5.39550126	      2.21629420	      0.18753671	     -0.10282907	      1.24578014	     -0.05239139	      1.67128985	      0.23201005	     -1.37773606	      0.09764373	      0.00170420	      7.95948931	     -5.37901464	     -7.49994010	     -0.01415217	     -0.89650281	     -7.28851695	      0.18912020	      0.00330077	      4.28045616	     -1.82754803	     -7.49994010	      4.36867826	      1.89886410	      1.43202977	      3.52224207	     -7.49032014	     34.88443718	     20.22569907	     64.36983948	      5.25046560	     -7.45943730	     38.71273746	     24.17262690	     63.94087153
      1.48333330	     -5.36634231	      2.20321243	      0.19203501	     -0.10292268	      1.24544228	     -0.05300868	      1.62344835	      0.24841012	     -1.70081445	      0.09728993	      0.00169803	      7.90544995	     -5.20074591	     -7.49995177	     -0.06621033	     -0.91217386	     -7.45450204	      0.18934891	      0.00330476	      4.23306762	     -1.73940893	     -7.49995177	      4.36133309	      1.92151148	      1.44060529	      3.49903725	     -7.46693797	     34.81814758	     20.09236440	     64.53819271	      5.18545270	     -7.40037907	     38.68796538	     24.05433036	     64.19821033
      1.50000000	     -5.37731759	      2.21115571	      0.20884735	     -0.10296826	      1.24593730	     -0.05308559	      1.61710323	      0.23163480	     -2.10128304	      0.09725958	      0.00169750	      7.82269414	     -4.89569382	     -7.49995291	     -0.09345449	     -0.90104674	     -7.38016739	      0.18768722	      0.00327576	      3.95544172	     -2.20908224	     -7.49995291	      4.40101089	      1.87490363	      1.42293633	      3.41443407	     -7.44716470	     34.70626672	     20.05997050	     64.53349151	      5.09004030	     -7.36488578	     38.54002148	     24.00286160	     64.23238012
      1.51666670	     -5.32429749	      2.20339709	      0.15927455	     -0.10237113	      1.24614309	     -0.05254358	      1.54324250	      0.24490953	     -2.15823016	      0.09655321	      0.00168517	      7.52315130	     -5.18185123	     -7.49995388	     -0.19112164	     -0.90746729	     -7.60189506	      0.18749107	      0.00327234	      3.95887993	     -2.07887630	     -7.49995388	      4.33164427	      1.89549339	      1.51100270	      3.41372513	     -7.42574070	     34.59699126	     20.01215915	     64.46387338	      5.05072973	     -7.30850956	     38.39580119	     23.93821808	     64.20929077
      1.53333330	     -5.32375286	      2.19015367	      0.08106238	     -0.10235187	      1.24455271	     -0.05236130	      1.52268473	      0.27222450	     -2.10998287	      0.09627499	      0.00168032	      7.52036855	     -5.23998041	     -7.49995911	     -0.23089264	     -0.91680937	     -7.76461579	      0.18584903	      0.00324368	      4.08847466	     -1.77705388	     -7.49995911	      4.36773206	      1.89432612	      1.59412243	      3.34197195	     -7.44317771	     34.66098053	     20.07141706	     64.69294793	      5.00149470	     -7.29919838	     38.53780282	     23.88283700	     64.56042331
